<mxfile host="app.diagrams.net" modified="2022-11-30T06:29:29.222Z" agent="5.0 (Macintosh; Intel Mac OS X 10_15_7) AppleWebKit/537.36 (KHTML, like Gecko) Chrome/107.0.0.0 Safari/537.36" etag="DMKiWxxiiJx5pCR2T5c-" version="20.5.1" type="github">
  <diagram id="0ysHFTCivcRCxHC7qrkj" name="Page-1">
    <mxGraphModel dx="1186" dy="100" grid="0" gridSize="10" guides="1" tooltips="1" connect="1" arrows="1" fold="1" page="0" pageScale="1" pageWidth="850" pageHeight="1100" math="0" shadow="0">
      <root>
        <mxCell id="0" />
        <mxCell id="1" parent="0" />
        <mxCell id="yrjzM_FVNmFPox8S20JC-1" value="" style="rounded=1;whiteSpace=wrap;html=1;" parent="1" vertex="1">
          <mxGeometry x="250" y="766.25" width="280" height="130" as="geometry" />
        </mxCell>
        <mxCell id="yrjzM_FVNmFPox8S20JC-2" value="游戏1" style="text;html=1;strokeColor=none;fillColor=none;align=center;verticalAlign=middle;whiteSpace=wrap;rounded=0;" parent="1" vertex="1">
          <mxGeometry x="250" y="820" width="60" height="30" as="geometry" />
        </mxCell>
        <mxCell id="yrjzM_FVNmFPox8S20JC-3" value="玩法" style="whiteSpace=wrap;html=1;aspect=fixed;" parent="1" vertex="1">
          <mxGeometry x="317" y="802.5" width="57.5" height="57.5" as="geometry" />
        </mxCell>
        <mxCell id="yrjzM_FVNmFPox8S20JC-4" value="界面" style="whiteSpace=wrap;html=1;aspect=fixed;" parent="1" vertex="1">
          <mxGeometry x="390" y="802.5" width="57.5" height="57.5" as="geometry" />
        </mxCell>
        <mxCell id="yrjzM_FVNmFPox8S20JC-5" value="" style="rounded=0;whiteSpace=wrap;html=1;" parent="1" vertex="1">
          <mxGeometry x="240" y="1140" width="690" height="190" as="geometry" />
        </mxCell>
        <mxCell id="yrjzM_FVNmFPox8S20JC-6" value="公共库" style="text;html=1;strokeColor=none;fillColor=none;align=center;verticalAlign=middle;whiteSpace=wrap;rounded=0;" parent="1" vertex="1">
          <mxGeometry x="240" y="1220" width="60" height="30" as="geometry" />
        </mxCell>
        <mxCell id="yrjzM_FVNmFPox8S20JC-7" value="网络请求" style="rounded=0;whiteSpace=wrap;html=1;" parent="1" vertex="1">
          <mxGeometry x="320" y="1205" width="120" height="60" as="geometry" />
        </mxCell>
        <mxCell id="yrjzM_FVNmFPox8S20JC-8" value="日志管理" style="rounded=0;whiteSpace=wrap;html=1;" parent="1" vertex="1">
          <mxGeometry x="470" y="1205" width="120" height="60" as="geometry" />
        </mxCell>
        <mxCell id="yrjzM_FVNmFPox8S20JC-9" value="工具类" style="rounded=0;whiteSpace=wrap;html=1;" parent="1" vertex="1">
          <mxGeometry x="632" y="1205" width="120" height="60" as="geometry" />
        </mxCell>
        <mxCell id="yrjzM_FVNmFPox8S20JC-10" value="..." style="whiteSpace=wrap;html=1;aspect=fixed;" parent="1" vertex="1">
          <mxGeometry x="460" y="802.5" width="57.5" height="57.5" as="geometry" />
        </mxCell>
        <mxCell id="yrjzM_FVNmFPox8S20JC-11" value="" style="rounded=0;whiteSpace=wrap;html=1;" parent="1" vertex="1">
          <mxGeometry x="90" y="580" width="120" height="750" as="geometry" />
        </mxCell>
        <mxCell id="yrjzM_FVNmFPox8S20JC-12" value="接口层" style="text;html=1;strokeColor=none;fillColor=none;align=center;verticalAlign=middle;whiteSpace=wrap;rounded=0;" parent="1" vertex="1">
          <mxGeometry x="120" y="590" width="60" height="30" as="geometry" />
        </mxCell>
        <mxCell id="yrjzM_FVNmFPox8S20JC-13" value="" style="rounded=0;whiteSpace=wrap;html=1;" parent="1" vertex="1">
          <mxGeometry x="240" y="920" width="690" height="190" as="geometry" />
        </mxCell>
        <mxCell id="yrjzM_FVNmFPox8S20JC-14" value="硬件" style="text;html=1;strokeColor=none;fillColor=none;align=center;verticalAlign=middle;whiteSpace=wrap;rounded=0;" parent="1" vertex="1">
          <mxGeometry x="240" y="1000" width="60" height="30" as="geometry" />
        </mxCell>
        <mxCell id="yrjzM_FVNmFPox8S20JC-15" value="打印" style="rounded=0;whiteSpace=wrap;html=1;" parent="1" vertex="1">
          <mxGeometry x="320" y="985" width="120" height="60" as="geometry" />
        </mxCell>
        <mxCell id="yrjzM_FVNmFPox8S20JC-16" value="扫描" style="rounded=0;whiteSpace=wrap;html=1;" parent="1" vertex="1">
          <mxGeometry x="485" y="985" width="120" height="60" as="geometry" />
        </mxCell>
        <mxCell id="yrjzM_FVNmFPox8S20JC-17" value="兑票" style="rounded=0;whiteSpace=wrap;html=1;" parent="1" vertex="1">
          <mxGeometry x="650" y="985" width="120" height="60" as="geometry" />
        </mxCell>
        <mxCell id="yrjzM_FVNmFPox8S20JC-18" value="" style="rounded=1;whiteSpace=wrap;html=1;" parent="1" vertex="1">
          <mxGeometry x="547" y="766.25" width="285" height="130" as="geometry" />
        </mxCell>
        <mxCell id="yrjzM_FVNmFPox8S20JC-19" value="游戏2" style="text;html=1;strokeColor=none;fillColor=none;align=center;verticalAlign=middle;whiteSpace=wrap;rounded=0;" parent="1" vertex="1">
          <mxGeometry x="547" y="820" width="60" height="30" as="geometry" />
        </mxCell>
        <mxCell id="yrjzM_FVNmFPox8S20JC-20" value="玩法" style="whiteSpace=wrap;html=1;aspect=fixed;" parent="1" vertex="1">
          <mxGeometry x="615" y="802.5" width="57.5" height="57.5" as="geometry" />
        </mxCell>
        <mxCell id="yrjzM_FVNmFPox8S20JC-21" value="界面" style="whiteSpace=wrap;html=1;aspect=fixed;" parent="1" vertex="1">
          <mxGeometry x="683.25" y="802.5" width="57.5" height="57.5" as="geometry" />
        </mxCell>
        <mxCell id="yrjzM_FVNmFPox8S20JC-22" value="..." style="whiteSpace=wrap;html=1;aspect=fixed;" parent="1" vertex="1">
          <mxGeometry x="752" y="802.5" width="57.5" height="57.5" as="geometry" />
        </mxCell>
        <mxCell id="yrjzM_FVNmFPox8S20JC-23" value="" style="rounded=0;whiteSpace=wrap;html=1;" parent="1" vertex="1">
          <mxGeometry x="250" y="580" width="680" height="130" as="geometry" />
        </mxCell>
        <mxCell id="yrjzM_FVNmFPox8S20JC-24" value="模板" style="text;html=1;strokeColor=none;fillColor=none;align=center;verticalAlign=middle;whiteSpace=wrap;rounded=0;" parent="1" vertex="1">
          <mxGeometry x="250" y="630" width="60" height="30" as="geometry" />
        </mxCell>
        <mxCell id="yrjzM_FVNmFPox8S20JC-25" value="主界面/菜单" style="rounded=0;whiteSpace=wrap;html=1;" parent="1" vertex="1">
          <mxGeometry x="330" y="615" width="120" height="60" as="geometry" />
        </mxCell>
        <mxCell id="yrjzM_FVNmFPox8S20JC-26" value="游戏列表" style="rounded=0;whiteSpace=wrap;html=1;" parent="1" vertex="1">
          <mxGeometry x="495" y="615" width="120" height="60" as="geometry" />
        </mxCell>
        <mxCell id="yrjzM_FVNmFPox8S20JC-27" value="公告" style="rounded=0;whiteSpace=wrap;html=1;" parent="1" vertex="1">
          <mxGeometry x="660" y="615" width="120" height="60" as="geometry" />
        </mxCell>
        <mxCell id="yrjzM_FVNmFPox8S20JC-28" value="" style="rounded=0;whiteSpace=wrap;html=1;" parent="1" vertex="1">
          <mxGeometry x="990" y="580" width="120" height="750" as="geometry" />
        </mxCell>
        <mxCell id="yrjzM_FVNmFPox8S20JC-29" value="脚手架" style="text;html=1;strokeColor=none;fillColor=none;align=center;verticalAlign=middle;whiteSpace=wrap;rounded=0;" parent="1" vertex="1">
          <mxGeometry x="1015" y="585" width="60" height="30" as="geometry" />
        </mxCell>
        <mxCell id="yrjzM_FVNmFPox8S20JC-30" value="出票接口" style="rounded=0;whiteSpace=wrap;html=1;" parent="1" vertex="1">
          <mxGeometry x="110" y="675" width="80" height="50" as="geometry" />
        </mxCell>
        <mxCell id="yrjzM_FVNmFPox8S20JC-31" value="..." style="rounded=1;whiteSpace=wrap;html=1;fontStyle=1;fontSize=20;" parent="1" vertex="1">
          <mxGeometry x="850" y="766.25" width="80" height="130" as="geometry" />
        </mxCell>
        <mxCell id="yrjzM_FVNmFPox8S20JC-32" style="edgeStyle=orthogonalEdgeStyle;rounded=0;orthogonalLoop=1;jettySize=auto;html=1;entryX=0.5;entryY=0;entryDx=0;entryDy=0;fontSize=20;" parent="1" source="yrjzM_FVNmFPox8S20JC-33" target="yrjzM_FVNmFPox8S20JC-35" edge="1">
          <mxGeometry relative="1" as="geometry" />
        </mxCell>
        <mxCell id="yrjzM_FVNmFPox8S20JC-33" value="1. 模板" style="rounded=0;whiteSpace=wrap;html=1;" parent="1" vertex="1">
          <mxGeometry x="1015" y="635" width="70" height="40" as="geometry" />
        </mxCell>
        <mxCell id="yrjzM_FVNmFPox8S20JC-34" style="edgeStyle=orthogonalEdgeStyle;rounded=0;orthogonalLoop=1;jettySize=auto;html=1;fontSize=20;" parent="1" source="yrjzM_FVNmFPox8S20JC-35" target="yrjzM_FVNmFPox8S20JC-37" edge="1">
          <mxGeometry relative="1" as="geometry" />
        </mxCell>
        <mxCell id="yrjzM_FVNmFPox8S20JC-35" value="2. 游戏" style="rounded=0;whiteSpace=wrap;html=1;" parent="1" vertex="1">
          <mxGeometry x="1015" y="719" width="70" height="40" as="geometry" />
        </mxCell>
        <mxCell id="yrjzM_FVNmFPox8S20JC-36" style="edgeStyle=orthogonalEdgeStyle;rounded=0;orthogonalLoop=1;jettySize=auto;html=1;fontSize=20;" parent="1" source="yrjzM_FVNmFPox8S20JC-37" target="yrjzM_FVNmFPox8S20JC-38" edge="1">
          <mxGeometry relative="1" as="geometry" />
        </mxCell>
        <mxCell id="yrjzM_FVNmFPox8S20JC-37" value="3. 设备" style="rounded=0;whiteSpace=wrap;html=1;" parent="1" vertex="1">
          <mxGeometry x="1015" y="802.5" width="70" height="40" as="geometry" />
        </mxCell>
        <mxCell id="yrjzM_FVNmFPox8S20JC-38" value="4. 生成" style="rounded=0;whiteSpace=wrap;html=1;" parent="1" vertex="1">
          <mxGeometry x="1015" y="887" width="70" height="40" as="geometry" />
        </mxCell>
        <mxCell id="yrjzM_FVNmFPox8S20JC-39" value="扫描接口" style="rounded=0;whiteSpace=wrap;html=1;" parent="1" vertex="1">
          <mxGeometry x="110" y="766.25" width="80" height="50" as="geometry" />
        </mxCell>
        <mxCell id="yrjzM_FVNmFPox8S20JC-40" value="游戏列表" style="rounded=0;whiteSpace=wrap;html=1;" parent="1" vertex="1">
          <mxGeometry x="108" y="855" width="80" height="50" as="geometry" />
        </mxCell>
        <mxCell id="yrjzM_FVNmFPox8S20JC-41" value="..." style="rounded=0;whiteSpace=wrap;html=1;" parent="1" vertex="1">
          <mxGeometry x="790" y="985" width="120" height="60" as="geometry" />
        </mxCell>
        <mxCell id="yrjzM_FVNmFPox8S20JC-42" value="..." style="rounded=0;whiteSpace=wrap;html=1;" parent="1" vertex="1">
          <mxGeometry x="790" y="1205" width="120" height="60" as="geometry" />
        </mxCell>
      </root>
    </mxGraphModel>
  </diagram>
</mxfile>
